<?xml version="1.0" encoding="utf-8"?><svg viewBox="0 0 18 18" xmlns="http://www.w3.org/2000/svg" xmlns:xlink="http://www.w3.org/1999/xlink"><style>:root>svg{display:none}:root>svg:target{display:block}</style><svg fill="none" viewBox="0 0 11 18" id="facebook" xmlns="http://www.w3.org/2000/svg"><path d="M8.664 2.989H10.4V.127A23.63 23.63 0 0 0 7.872 0C5.37 0 3.658 1.49 3.658 4.23v2.52H.898v3.2h2.76V18H7.04V9.95H9.69l.42-3.2H7.04V4.547c.001-.924.264-1.557 1.624-1.557Z" fill="#fff"/></svg><svg fill="none" viewBox="0 0 18 18" id="instagram" xmlns="http://www.w3.org/2000/svg"><path d="M9.003 4.378a4.618 4.618 0 1 0 0 9.237 4.618 4.618 0 1 0 0-9.237Zm0 7.617a2.997 2.997 0 1 1 0-5.996 2.997 2.997 0 1 1 0 5.996Z" fill="#fff"/><path d="M12.71.058c-1.655-.078-5.757-.074-7.415 0-1.456.068-2.74.42-3.777 1.455C-.212 3.244.008 5.577.008 8.998c0 3.5-.194 5.779 1.51 7.484 1.738 1.737 4.104 1.51 7.485 1.51 3.468 0 4.665.002 5.89-.473 1.668-.647 2.927-2.137 3.05-4.814.078-1.657.073-5.758 0-7.415C17.794 2.13 16.098.214 12.71.058Zm2.622 15.278c-1.135 1.135-2.71 1.034-6.351 1.034-3.75 0-5.254.055-6.351-1.045-1.264-1.257-1.035-3.277-1.035-6.34 0-4.143-.425-7.127 3.733-7.34C6.284 1.61 6.565 1.6 8.97 1.6l.034.022c3.997 0 7.133-.418 7.32 3.74.044.948.053 1.233.053 3.635 0 3.706.07 5.219-1.045 6.34Z" fill="#fff"/><path d="M13.805 5.275a1.08 1.08 0 1 0 0-2.158 1.08 1.08 0 0 0 0 2.158Z" fill="#fff"/></svg><svg fill="none" viewBox="0 0 6 8" id="location" xmlns="http://www.w3.org/2000/svg"><path d="M3.026 1.753a1.024 1.024 0 0 0 0 2.045c.564 0 1.023-.458 1.023-1.022 0-.564-.46-1.023-1.023-1.023Zm0 1.753a.731.731 0 1 1 .002-1.462.731.731 0 0 1-.002 1.462Z" fill="#C04500"/><path d="M4.981.82A2.784 2.784 0 0 0 3.001 0c-.75 0-1.453.291-1.982.82-.98.98-1.1 2.822-.263 3.938L3 8l2.242-3.237c.84-1.12.719-2.963-.26-3.942Zm.024 3.772L3 7.487l-2.007-2.9c-.76-1.012-.651-2.676.233-3.56A2.493 2.493 0 0 1 3 .292c.67 0 1.3.261 1.775.735.884.884.993 2.548.23 3.565Z" fill="#C04500"/></svg></svg>