<svg width="18" height="18" viewBox="0 0 18 18" fill="none" xmlns="http://www.w3.org/2000/svg">
<path d="M9.00278 4.37842C6.45053 4.37842 4.38428 6.44692 4.38428 8.99692C4.38428 11.5492 6.45278 13.6154 9.00278 13.6154C11.555 13.6154 13.6213 11.5469 13.6213 8.99692C13.6213 6.44467 11.5528 4.37842 9.00278 4.37842ZM9.00278 11.9947C7.34603 11.9947 6.00503 10.6529 6.00503 8.99692C6.00503 7.34092 7.34678 5.99917 9.00278 5.99917C10.6588 5.99917 12.0005 7.34092 12.0005 8.99692C12.0013 10.6529 10.6595 11.9947 9.00278 11.9947Z" fill="white"/>
<path d="M12.7107 0.0575166C11.0547 -0.0197334 6.95293 -0.0159834 5.29543 0.0575166C3.83893 0.125767 2.55418 0.477516 1.51843 1.51327C-0.212568 3.24427 0.00868216 5.57677 0.00868216 8.99752C0.00868216 12.4985 -0.186318 14.777 1.51843 16.4818C3.25618 18.2188 5.62243 17.9915 9.00268 17.9915C12.4707 17.9915 13.6677 17.9938 14.8939 17.519C16.5612 16.8718 17.8197 15.3815 17.9427 12.7048C18.0207 11.048 18.0162 6.94702 17.9427 5.28952C17.7942 2.12977 16.0984 0.213517 12.7107 0.0575166ZM15.3319 15.3365C14.1972 16.4713 12.6229 16.37 8.98093 16.37C5.23093 16.37 3.72718 16.4255 2.62993 15.3253C1.36618 14.0675 1.59493 12.0478 1.59493 8.98552C1.59493 4.84177 1.16968 1.85752 5.32843 1.64452C6.28393 1.61077 6.56518 1.59952 8.97043 1.59952L9.00418 1.62202C13.0009 1.62202 16.1367 1.20352 16.3249 5.36152C16.3677 6.31027 16.3774 6.59527 16.3774 8.99677C16.3767 12.7033 16.4472 14.216 15.3319 15.3365Z" fill="white"/>
<path d="M13.8046 5.27544C14.4006 5.27544 14.8838 4.79225 14.8838 4.19619C14.8838 3.60014 14.4006 3.11694 13.8046 3.11694C13.2085 3.11694 12.7253 3.60014 12.7253 4.19619C12.7253 4.79225 13.2085 5.27544 13.8046 5.27544Z" fill="white"/>
</svg>
